<mxfile host="app.diagrams.net" modified="2024-01-20T07:38:34.503Z" agent="Mozilla/5.0 (Windows NT 10.0; Win64; x64) AppleWebKit/537.36 (KHTML, like Gecko) Chrome/120.0.0.0 Safari/537.36" etag="HvCheiJbVy9CgAxU-7iM" version="22.1.21" type="device">
  <diagram name="Page-1" id="Clb8Xul--orJkokfgxBV">
    <mxGraphModel dx="1050" dy="691" grid="1" gridSize="10" guides="1" tooltips="1" connect="1" arrows="1" fold="1" page="1" pageScale="1" pageWidth="1169" pageHeight="827" math="0" shadow="0">
      <root>
        <mxCell id="0" />
        <mxCell id="1" parent="0" />
        <mxCell id="Pm6yPaOmJ5-20Bbt8mWy-29" value="" style="group" vertex="1" connectable="0" parent="1">
          <mxGeometry x="380" y="110" width="140" height="84" as="geometry" />
        </mxCell>
        <mxCell id="Pm6yPaOmJ5-20Bbt8mWy-27" value="" style="group" vertex="1" connectable="0" parent="Pm6yPaOmJ5-20Bbt8mWy-29">
          <mxGeometry width="140" height="84" as="geometry" />
        </mxCell>
        <mxCell id="Pm6yPaOmJ5-20Bbt8mWy-2" value="«interface»&lt;br&gt;&lt;b&gt;PaymentStrategy&lt;/b&gt;" style="html=1;whiteSpace=wrap;" vertex="1" parent="Pm6yPaOmJ5-20Bbt8mWy-27">
          <mxGeometry width="140" height="50" as="geometry" />
        </mxCell>
        <mxCell id="Pm6yPaOmJ5-20Bbt8mWy-3" value="+ pay(int amount): void" style="text;strokeColor=none;fillColor=none;align=left;verticalAlign=top;spacingLeft=4;spacingRight=4;overflow=hidden;rotatable=0;points=[[0,0.5],[1,0.5]];portConstraint=eastwest;whiteSpace=wrap;html=1;" vertex="1" parent="Pm6yPaOmJ5-20Bbt8mWy-27">
          <mxGeometry y="50" width="140" height="26" as="geometry" />
        </mxCell>
        <mxCell id="Pm6yPaOmJ5-20Bbt8mWy-19" value="" style="line;strokeWidth=1;fillColor=none;align=left;verticalAlign=middle;spacingTop=-1;spacingLeft=3;spacingRight=3;rotatable=0;labelPosition=right;points=[];portConstraint=eastwest;strokeColor=inherit;" vertex="1" parent="Pm6yPaOmJ5-20Bbt8mWy-27">
          <mxGeometry y="76" width="140" height="8" as="geometry" />
        </mxCell>
        <mxCell id="Pm6yPaOmJ5-20Bbt8mWy-25" value="" style="endArrow=none;html=1;rounded=0;" edge="1" parent="Pm6yPaOmJ5-20Bbt8mWy-27">
          <mxGeometry width="50" height="50" relative="1" as="geometry">
            <mxPoint y="80" as="sourcePoint" />
            <mxPoint y="50" as="targetPoint" />
          </mxGeometry>
        </mxCell>
        <mxCell id="Pm6yPaOmJ5-20Bbt8mWy-26" value="" style="endArrow=none;html=1;rounded=0;" edge="1" parent="Pm6yPaOmJ5-20Bbt8mWy-27">
          <mxGeometry width="50" height="50" relative="1" as="geometry">
            <mxPoint x="140" y="80" as="sourcePoint" />
            <mxPoint x="140" y="50" as="targetPoint" />
          </mxGeometry>
        </mxCell>
        <mxCell id="Pm6yPaOmJ5-20Bbt8mWy-28" value="" style="endArrow=none;html=1;rounded=0;" edge="1" parent="Pm6yPaOmJ5-20Bbt8mWy-29">
          <mxGeometry width="50" height="50" relative="1" as="geometry">
            <mxPoint x="140" y="80" as="sourcePoint" />
            <mxPoint y="80" as="targetPoint" />
          </mxGeometry>
        </mxCell>
        <mxCell id="Pm6yPaOmJ5-20Bbt8mWy-30" value="CreditCardPayement" style="swimlane;fontStyle=1;align=center;verticalAlign=top;childLayout=stackLayout;horizontal=1;startSize=26;horizontalStack=0;resizeParent=1;resizeParentMax=0;resizeLast=0;collapsible=1;marginBottom=0;whiteSpace=wrap;html=1;" vertex="1" parent="1">
          <mxGeometry x="370" y="310" width="160" height="138" as="geometry" />
        </mxCell>
        <mxCell id="Pm6yPaOmJ5-20Bbt8mWy-36" value="" style="endArrow=block;dashed=1;endFill=0;endSize=12;html=1;rounded=0;" edge="1" parent="Pm6yPaOmJ5-20Bbt8mWy-30">
          <mxGeometry width="160" relative="1" as="geometry">
            <mxPoint x="80" as="sourcePoint" />
            <mxPoint x="80" y="-120" as="targetPoint" />
          </mxGeometry>
        </mxCell>
        <mxCell id="Pm6yPaOmJ5-20Bbt8mWy-31" value="- cardNumber : string" style="text;strokeColor=none;fillColor=none;align=left;verticalAlign=top;spacingLeft=4;spacingRight=4;overflow=hidden;rotatable=0;points=[[0,0.5],[1,0.5]];portConstraint=eastwest;whiteSpace=wrap;html=1;" vertex="1" parent="Pm6yPaOmJ5-20Bbt8mWy-30">
          <mxGeometry y="26" width="160" height="26" as="geometry" />
        </mxCell>
        <mxCell id="Pm6yPaOmJ5-20Bbt8mWy-34" value="- expirayDate : string" style="text;strokeColor=none;fillColor=none;align=left;verticalAlign=top;spacingLeft=4;spacingRight=4;overflow=hidden;rotatable=0;points=[[0,0.5],[1,0.5]];portConstraint=eastwest;whiteSpace=wrap;html=1;" vertex="1" parent="Pm6yPaOmJ5-20Bbt8mWy-30">
          <mxGeometry y="52" width="160" height="26" as="geometry" />
        </mxCell>
        <mxCell id="Pm6yPaOmJ5-20Bbt8mWy-33" value="- cvv : string" style="text;strokeColor=none;fillColor=none;align=left;verticalAlign=top;spacingLeft=4;spacingRight=4;overflow=hidden;rotatable=0;points=[[0,0.5],[1,0.5]];portConstraint=eastwest;whiteSpace=wrap;html=1;" vertex="1" parent="Pm6yPaOmJ5-20Bbt8mWy-30">
          <mxGeometry y="78" width="160" height="26" as="geometry" />
        </mxCell>
        <mxCell id="Pm6yPaOmJ5-20Bbt8mWy-32" value="" style="line;strokeWidth=1;fillColor=none;align=left;verticalAlign=middle;spacingTop=-1;spacingLeft=3;spacingRight=3;rotatable=0;labelPosition=right;points=[];portConstraint=eastwest;strokeColor=inherit;" vertex="1" parent="Pm6yPaOmJ5-20Bbt8mWy-30">
          <mxGeometry y="104" width="160" height="8" as="geometry" />
        </mxCell>
        <mxCell id="Pm6yPaOmJ5-20Bbt8mWy-35" value="+ pay(int amount) : void" style="text;strokeColor=none;fillColor=none;align=left;verticalAlign=top;spacingLeft=4;spacingRight=4;overflow=hidden;rotatable=0;points=[[0,0.5],[1,0.5]];portConstraint=eastwest;whiteSpace=wrap;html=1;" vertex="1" parent="Pm6yPaOmJ5-20Bbt8mWy-30">
          <mxGeometry y="112" width="160" height="26" as="geometry" />
        </mxCell>
        <mxCell id="Pm6yPaOmJ5-20Bbt8mWy-37" value="UPIPayment" style="swimlane;fontStyle=1;align=center;verticalAlign=top;childLayout=stackLayout;horizontal=1;startSize=26;horizontalStack=0;resizeParent=1;resizeParentMax=0;resizeLast=0;collapsible=1;marginBottom=0;whiteSpace=wrap;html=1;" vertex="1" parent="1">
          <mxGeometry x="670" y="95" width="160" height="86" as="geometry" />
        </mxCell>
        <mxCell id="Pm6yPaOmJ5-20Bbt8mWy-41" value="- upiId : string" style="text;strokeColor=none;fillColor=none;align=left;verticalAlign=top;spacingLeft=4;spacingRight=4;overflow=hidden;rotatable=0;points=[[0,0.5],[1,0.5]];portConstraint=eastwest;whiteSpace=wrap;html=1;" vertex="1" parent="Pm6yPaOmJ5-20Bbt8mWy-37">
          <mxGeometry y="26" width="160" height="26" as="geometry" />
        </mxCell>
        <mxCell id="Pm6yPaOmJ5-20Bbt8mWy-42" value="" style="line;strokeWidth=1;fillColor=none;align=left;verticalAlign=middle;spacingTop=-1;spacingLeft=3;spacingRight=3;rotatable=0;labelPosition=right;points=[];portConstraint=eastwest;strokeColor=inherit;" vertex="1" parent="Pm6yPaOmJ5-20Bbt8mWy-37">
          <mxGeometry y="52" width="160" height="8" as="geometry" />
        </mxCell>
        <mxCell id="Pm6yPaOmJ5-20Bbt8mWy-43" value="+ pay(int amount) : void" style="text;strokeColor=none;fillColor=none;align=left;verticalAlign=top;spacingLeft=4;spacingRight=4;overflow=hidden;rotatable=0;points=[[0,0.5],[1,0.5]];portConstraint=eastwest;whiteSpace=wrap;html=1;" vertex="1" parent="Pm6yPaOmJ5-20Bbt8mWy-37">
          <mxGeometry y="60" width="160" height="26" as="geometry" />
        </mxCell>
        <mxCell id="Pm6yPaOmJ5-20Bbt8mWy-45" value="" style="endArrow=block;dashed=1;endFill=0;endSize=12;html=1;rounded=0;exitX=-0.025;exitY=0.977;exitDx=0;exitDy=0;exitPerimeter=0;" edge="1" parent="1" source="Pm6yPaOmJ5-20Bbt8mWy-41">
          <mxGeometry width="160" relative="1" as="geometry">
            <mxPoint x="670" y="121" as="sourcePoint" />
            <mxPoint x="520" y="148" as="targetPoint" />
          </mxGeometry>
        </mxCell>
      </root>
    </mxGraphModel>
  </diagram>
</mxfile>
